<svg width="32" height="31" viewBox="0 0 32 31" fill="none" xmlns="http://www.w3.org/2000/svg">
<path d="M21.25 9.25L26.5 4M29.5 1L26.5 4L29.5 1ZM15.085 15.415C15.8596 16.1792 16.4753 17.0891 16.8967 18.0922C17.3181 19.0953 17.5369 20.1719 17.5406 21.2599C17.5442 22.348 17.3326 23.426 16.9179 24.4319C16.5032 25.4379 15.8936 26.3518 15.1243 27.1212C14.3549 27.8906 13.4409 28.5002 12.435 28.9149C11.4291 29.3296 10.351 29.5412 9.26299 29.5375C8.17494 29.5339 7.09836 29.3151 6.09523 28.8936C5.0921 28.4722 4.18225 27.8565 3.41805 27.082C1.91524 25.526 1.08369 23.4421 1.10248 21.2789C1.12128 19.1158 1.98893 17.0466 3.51854 15.517C5.04816 13.9874 7.11736 13.1197 9.28049 13.1009C11.4436 13.0821 13.5276 13.9137 15.0835 15.4165L15.085 15.415ZM15.085 15.415L21.25 9.25L15.085 15.415ZM21.25 9.25L25.75 13.75L31 8.5L26.5 4L21.25 9.25Z" stroke="black" stroke-width="2" stroke-linecap="round" stroke-linejoin="round"/>
</svg>
